<svg xmlns="http://www.w3.org/2000/svg" viewBox="0 0 718.9 145.5"><defs><style>.cls-1{fill:#a9c839;}.cls-2{fill:#aac939;}</style></defs><title>jw23_logo-black-FR</title><g id="Calque_2" data-name="Calque 2"><g id="Calque_1-2" data-name="Calque 1"><g id="VECT"><path class="cls-1" d="M94.2,16.3l-.8.4c-.4,13.5-1.3,27.9-2.9,38.5l-6.5.1H97.2C95.5,44.6,94.7,30,94.2,16.3Z"/><path class="cls-1" d="M93.8,105a28.54,28.54,0,0,0-19.5,7.5l47.9,26.7V124.6C119.2,118.5,111.2,105.3,93.8,105Z"/><path class="cls-1" d="M69.4,98.5c0-4.2-.7-4.9-.7-4.9l.5-1.1V89h49.2v3.5l.5,1.1s-.7.7-.7,4.9l4,6.6V.1L98.7,13.7c1.2,17.6,2.9,35.9,5,41.5h.8l2.4.8.1,1.7-1.4,7.2h-.1c2.3,6.9,6.9,20.8,8,23.8H101c-1.5-6.2-2.8-16.3-2.8-16.3H89.4S88,82.5,86.6,88.7H73.9c1.1-3,5.8-17.1,8.1-23.9h-.1l-1.3-7,.1-1.7,2.4-.8h1c1.9-5,3.4-20,4.5-35.7L0,71.1,64.3,107Z"/><path class="cls-2" d="M204.4,50.3c0,9.1-2.5,24-23.6,24-11.8,0-23.3-6.4-23.3-21.9V46.3h14v3.2c0,6.8,1.7,11.8,9,11.8,8.2,0,8.2-6.6,8.2-11.6V1.9h15.6V50.3Z"/><path class="cls-2" d="M215.1,1.8H268V14.9H230.6V30.1h34.3V42.2H230.6V59.5h38.2V72.6H215.1Z"/><path class="cls-2" d="M323.7,25.6c-1-7-7.7-12.4-15.5-12.4-14,0-19.2,11.9-19.2,24.3,0,11.8,5.3,23.7,19.2,23.7,9.5,0,14.9-6.5,16.1-15.9h15.1c-1.6,17.6-13.8,28.9-31.1,28.9-21.9,0-34.8-16.4-34.8-36.8,0-21,12.9-37.4,34.8-37.4,15.6,0,28.6,9.1,30.5,25.5H323.7Z"/><path d="M434.6,72.6H419.1l-12-48.2h-.2L395.1,72.6H379.3L360.6,1.8h15.6L387.4,50h.2L399.9,1.8h14.6l12.1,48.8h.2L438.4,1.8h15.3Z"/><path d="M489.5.1c21.9,0,34.8,16.4,34.8,37.4,0,20.4-12.9,36.8-34.8,36.8s-34.8-16.4-34.8-36.8C454.7,16.5,467.6.1,489.5.1Zm0,61.1c14,0,19.2-11.9,19.2-23.7,0-12.4-5.3-24.3-19.2-24.3s-19.2,11.9-19.2,24.3C470.2,49.3,475.5,61.2,489.5,61.2Z"/><path d="M531.9,1.8h38.2c12.7,0,20.7,8.8,20.7,19.5,0,8.3-3.4,14.6-11.2,17.7v.2c7.6,2,9.8,9.4,10.3,16.6.3,4.5.2,12.8,3,16.8H577.3c-1.9-4.5-1.7-11.3-2.5-16.9-1.1-7.4-4-10.7-11.8-10.7H547.5V72.7H531.9Zm15.6,32h17c6.9,0,10.7-3,10.7-10.1,0-6.8-3.8-9.8-10.7-9.8h-17Z"/><path d="M600.5,1.8h15.6V59.5h34.4V72.6h-50Z"/><path d="M656.3,1.8h30.5c18.3,0,32.1,11.5,32.1,35,0,20.5-10.5,35.8-32.1,35.8H656.3Zm15.5,57.7h13.9c9,0,17.6-5.6,17.6-21.2,0-14.3-5-23.4-20.4-23.4H671.8Z"/><path d="M164.9,87.1v19.1h11.4v4.3H159.7V87h5.2Z"/><path d="M193.9,99.3a11.81,11.81,0,0,1,.4,3v.9H182c.1,2.9,1.6,4.3,4.1,4.3,1.8,0,3.4-1,3.7-2.2h4.1c-1.3,3.8-3.9,5.7-8,5.7-5.4,0-8.7-3.7-8.7-8.9s3.6-9,8.7-9A7.86,7.86,0,0,1,193.9,99.3Zm-4.3.9c-.5-2.6-1.6-3.6-3.7-3.6a3.63,3.63,0,0,0-3.8,3.6Z"/><path d="M215.8,93.2v4.3a7.93,7.93,0,0,0-1.7-.2c-3.4,0-4.6,2.4-4.6,5.5v7.7h-4.7v-17h4.4v3.2h.1a6,6,0,0,1,5.4-3.6C215.2,93.1,215.6,93.2,215.8,93.2Z"/><path d="M232.7,99.3a11.81,11.81,0,0,1,.4,3v.9H220.8c.1,2.9,1.6,4.3,4.1,4.3,1.8,0,3.4-1,3.7-2.2h4.1c-1.3,3.8-3.9,5.7-8,5.7-5.4,0-8.7-3.7-8.7-8.9s3.6-9,8.7-9A7.79,7.79,0,0,1,232.7,99.3Zm-4.3.9c-.5-2.6-1.6-3.6-3.7-3.6a3.63,3.63,0,0,0-3.8,3.6Z"/><path d="M251.1,100v10.5h-4.6v-9.6c0-2.8-.8-4.1-3-4.1-2.9,0-3.6,1.9-3.6,4.9v8.8h-4.7v-17h4.4v2.4h.1a5.91,5.91,0,0,1,5.2-2.8C249.3,93.1,251.1,95.2,251.1,100Z"/><path d="M270.6,87.1v23.4h-4.4v-2.2h-.1a5.63,5.63,0,0,1-5.2,2.6c-5.1,0-7.6-4.3-7.6-9.1s2.6-8.8,7.5-8.8a5.9,5.9,0,0,1,5,2.5h.1V87h4.7Zm-8.5,20.4c2.7,0,4-2.1,4-5.5,0-3.1-1.2-5.4-4-5.4S258,98.7,258,102C258,104.7,259.2,107.5,262.1,107.5Z"/><path d="M289.2,99.3a11.81,11.81,0,0,1,.4,3v.9H277.3c.1,2.9,1.6,4.3,4.1,4.3,1.8,0,3.4-1,3.7-2.2h4.1c-1.3,3.8-3.9,5.7-8,5.7-5.4,0-8.7-3.7-8.7-8.9s3.6-9,8.7-9A7.86,7.86,0,0,1,289.2,99.3Zm-4.3.9c-.5-2.6-1.6-3.6-3.7-3.6a3.63,3.63,0,0,0-3.8,3.6Z"/><path d="M305.6,93.5V97l-8.8,10h9.5v3.5H290.7V107l8.8-10h-8.2V93.5Z"/><path d="M317.9,99.6v4H308v-4Z"/><path d="M324.1,93.5l3.6,11.6h.1l3.6-11.6H336l-5.8,17H325l-5.8-17Z"/><path d="M354.3,102.1c0,5.5-3.6,8.9-8.8,8.9-5.4,0-8.8-3.6-8.8-8.9s3.5-9,8.8-9S354.3,96.7,354.3,102.1Zm-8.8,5.4c2.8,0,4.1-2.1,4.1-5.4,0-2.8-1-5.5-4.2-5.5-2.6,0-4.1,2-4.1,5.5S342.8,107.5,345.5,107.5Z"/><path d="M361.3,93.5v9.6c0,2.6.7,4.1,3,4.1,2.6,0,3.6-1.5,3.6-4.8V93.5h4.7v17h-4.4v-2.4h-.1a6,6,0,0,1-5.2,2.8c-4.4,0-6.2-2.2-6.2-6.9V93.5Z"/><path d="M390,98.5h-4.5c-.1-1.6-1.2-2.3-3.2-2.3-1.8,0-2.6.6-2.6,1.6s1,1.6,3.7,2.2c3.5.7,4.7,1.2,5.7,2.1a3.87,3.87,0,0,1,1.3,3.1c0,4.4-3.8,5.9-7.8,5.9-4.6,0-7.9-2-8-6H379c0,1.9,1.6,2.9,3.6,2.9,1.6,0,3.1-.7,3.1-2.2,0-1.2-1.4-1.8-5.1-2.6-3.9-.8-5.6-2.2-5.6-4.6,0-3.6,2.6-5.5,7.4-5.5S389.7,95,390,98.5Z"/><path d="M415.8,95.9a6.16,6.16,0,0,1,5.2-2.8c4.2,0,6.2,2.3,6.2,6.1v11.3h-4.7v-9.8c0-2.2-.3-3.9-2.9-3.9-2.2,0-3.1,1.5-3.1,4.3v9.5h-4.7v-10c0-2.2-.3-3.7-2.8-3.7-1.1,0-3.2.8-3.2,3.9v9.9h-4.7v-17h4.4V96h.1a6,6,0,0,1,5.2-2.8C413.3,93.1,415,94.1,415.8,95.9Z"/><path d="M447.2,102.1c0,5.5-3.6,8.9-8.8,8.9-5.4,0-8.8-3.6-8.8-8.9s3.5-9,8.8-9S447.2,96.7,447.2,102.1Zm-8.8,5.4c2.8,0,4.1-2.1,4.1-5.4,0-2.8-1-5.5-4.2-5.5-2.6,0-4.1,2-4.1,5.5S435.7,107.5,438.4,107.5Z"/><path d="M465.5,100v10.5h-4.7v-9.6c0-2.8-.8-4.1-3-4.1-2.9,0-3.6,1.9-3.6,4.9v8.8h-4.7v-17h4.4v2.4h.1a5.91,5.91,0,0,1,5.2-2.8C463.6,93.1,465.5,95.2,465.5,100Z"/><path d="M485,87.1v23.4h-4.5v-2.2h0a5.63,5.63,0,0,1-5.2,2.6c-5.1,0-7.6-4.3-7.6-9.1s2.6-8.8,7.5-8.8a5.9,5.9,0,0,1,5,2.5h.1V87H485Zm-8.6,20.4c2.7,0,4-2.1,4-5.5,0-3.1-1.2-5.4-4-5.4s-4.1,2.1-4.1,5.4C472.3,104.7,473.6,107.5,476.4,107.5Z"/><path d="M492.6,87.1v3.8h-4.7V87.1Zm0,6.4v17h-4.7v-17Z"/><path d="M510.9,97.9v9a9,9,0,0,0,.6,3.6h-4.7a4.53,4.53,0,0,1-.3-1.6,7.55,7.55,0,0,1-5.7,2.1c-3.5,0-5.8-1.8-5.8-5.1,0-2.5,1.2-4.1,3.9-4.8,1.7-.5,3.9-.6,5.4-.9s2-.8,2-1.8c0-1.9-1.4-2.3-3-2.3-1.9,0-3,.8-3.1,2.6h-4.7c.2-3.7,3.3-5.7,8-5.7C508.4,93.1,510.9,94.8,510.9,97.9Zm-8.4,10c2.5,0,3.8-1.3,3.8-3.8v-1.8c-.4.4-1.2.6-2.8.8-2.4.3-3.8.9-3.8,2.7C499.6,107.1,500.4,107.9,502.5,107.9Z"/><path d="M518.7,87.1v23.4H514V87h4.7Z"/><path d="M175.9,116.1v23.4h-4.4v-2.2h-.1a5.63,5.63,0,0,1-5.2,2.6c-5.1,0-7.6-4.3-7.6-9.1s2.6-8.8,7.5-8.8a5.9,5.9,0,0,1,5,2.5h.1V116h4.7Zm-8.6,20.4c2.7,0,4-2.1,4-5.5,0-3.1-1.2-5.4-4-5.4s-4.1,2.1-4.1,5.4C163.2,133.7,164.5,136.5,167.3,136.5Z"/><path d="M194.5,128.3a11.81,11.81,0,0,1,.4,3v.9H182.6c.1,2.9,1.6,4.3,4.1,4.3,1.8,0,3.4-1,3.7-2.2h4.1c-1.3,3.8-3.9,5.7-8,5.7-5.4,0-8.7-3.7-8.7-8.9s3.6-9,8.7-9A7.86,7.86,0,0,1,194.5,128.3Zm-4.3.9c-.5-2.6-1.6-3.6-3.7-3.6a3.63,3.63,0,0,0-3.8,3.6Zm2-13.4-5.1,4.7h-3.3l3.2-4.7Z"/><path d="M213.5,116.1v23.4h-4.4v-2.2H209a5.63,5.63,0,0,1-5.2,2.6c-5.1,0-7.6-4.3-7.6-9.1s2.6-8.8,7.5-8.8a5.9,5.9,0,0,1,5,2.5h.1V116h4.7ZM205,136.5c2.7,0,4-2.1,4-5.5,0-3.1-1.2-5.4-4-5.4s-4.1,2.1-4.1,5.4C200.9,133.7,202.1,136.5,205,136.5Z"/><path d="M221.2,116.1v3.8h-4.7v-3.8Zm0,6.4v17h-4.7v-17Z"/><path d="M239.9,128.3a11.81,11.81,0,0,1,.4,3v.9H228c.1,2.9,1.6,4.3,4.1,4.3,1.8,0,3.4-1,3.7-2.2h4.1c-1.3,3.8-3.9,5.7-8,5.7-5.4,0-8.7-3.7-8.7-8.9s3.6-9,8.7-9A7.79,7.79,0,0,1,239.9,128.3Zm-4.3.9c-.5-2.6-1.6-3.6-3.7-3.6a3.63,3.63,0,0,0-3.8,3.6Zm2.1-13.4-5.1,4.7h-3.3l3.2-4.7Z"/><path d="M266.2,126.9v9a9,9,0,0,0,.6,3.6h-4.7a4.53,4.53,0,0,1-.3-1.6,7.55,7.55,0,0,1-5.7,2.1c-3.5,0-5.8-1.8-5.8-5.1,0-2.5,1.2-4.1,3.9-4.8,1.7-.5,3.9-.6,5.4-.9s2-.8,2-1.8c0-1.9-1.4-2.3-3-2.3-1.9,0-3,.8-3.1,2.6h-4.7c.2-3.7,3.3-5.7,8-5.7C263.7,122.1,266.2,123.8,266.2,126.9Zm-8.5,10c2.5,0,3.8-1.3,3.8-3.8v-1.8c-.4.4-1.2.6-2.8.8-2.4.3-3.8.9-3.8,2.7C254.8,136.1,255.7,136.9,257.7,136.9Z"/><path d="M273.8,122.5v9.6c0,2.6.7,4.1,3,4.1,2.6,0,3.6-1.5,3.6-4.8v-8.9h4.7v17h-4.4v-2.4h-.2a6,6,0,0,1-5.2,2.8c-4.4,0-6.2-2.2-6.2-6.9V122.5Z"/><path d="M292,122.5l3,4.4,3-4.4h5.2l-5.6,8,6.3,9h-5.4l-3.6-5.4-3.6,5.4h-5.2l6.1-8.9-5.6-8.1Z"/><path d="M329.6,128.5H325a3.18,3.18,0,0,0-3.5-2.9c-2.8,0-4,2.8-4,5.5s1.2,5.4,3.9,5.4c2.1,0,3.4-1.2,3.7-3.5h4.5c-.6,4.5-3.6,7-8.2,7-5.3,0-8.6-3.8-8.6-8.7,0-5.4,3.3-9.2,8.7-9.2C325.9,122.1,329.3,124.5,329.6,128.5Z"/><path d="M348.7,131.1c0,5.5-3.6,8.9-8.8,8.9-5.4,0-8.8-3.6-8.8-8.9s3.5-9,8.8-9S348.7,125.7,348.7,131.1Zm-8.8,5.4c2.8,0,4.1-2.1,4.1-5.4,0-2.8-1-5.5-4.2-5.5-2.6,0-4.1,2-4.1,5.5S337.2,136.5,339.9,136.5Z"/><path d="M365.8,124.9a6.16,6.16,0,0,1,5.2-2.8c4.2,0,6.2,2.3,6.2,6.1v11.3h-4.7v-9.8c0-2.2-.3-3.9-2.9-3.9-2.2,0-3.1,1.5-3.1,4.3v9.5h-4.7v-10c0-2.2-.3-3.7-2.8-3.7-1.1,0-3.2.8-3.2,3.9v9.9h-4.7v-17h4.4V125h.1a6,6,0,0,1,5.2-2.8C363.4,122.1,365.1,123.1,365.8,124.9Z"/><path d="M397.5,131.2c0,4.7-2.6,8.8-7.5,8.8a5.92,5.92,0,0,1-5.1-2.6h-.1v8.1h-4.7v-23h4.4v2.2h.1a5.59,5.59,0,0,1,5.1-2.6C394.9,122.1,397.5,126.2,397.5,131.2Zm-8.7,5.3c2.9,0,4-2.4,4-5.4,0-2.6-1-5.5-4.1-5.5-2.6,0-4,2-4,5.5C384.7,134.2,386,136.5,388.8,136.5Z"/><path d="M416.7,131.1c0,5.5-3.6,8.9-8.8,8.9-5.4,0-8.8-3.6-8.8-8.9s3.5-9,8.8-9S416.7,125.7,416.7,131.1Zm-8.8,5.4c2.8,0,4.1-2.1,4.1-5.4,0-2.8-1-5.5-4.2-5.5-2.6,0-4.1,2-4.1,5.5S405.2,136.5,407.9,136.5Z"/><path d="M433.5,127.5h-4.4c-.1-1.6-1.2-2.3-3.2-2.3-1.8,0-2.6.6-2.6,1.6s1,1.6,3.7,2.2c3.5.7,4.7,1.2,5.7,2.1a3.87,3.87,0,0,1,1.3,3.1c0,4.4-3.8,5.9-7.8,5.9-4.6,0-7.9-2-8-6h4.4c0,1.9,1.6,2.9,3.6,2.9,1.6,0,3.1-.7,3.1-2.2,0-1.2-1.4-1.8-5.1-2.6-3.9-.8-5.6-2.2-5.6-4.6,0-3.6,2.6-5.5,7.4-5.5C430.6,122.1,433.2,124,433.5,127.5Z"/><path d="M440.9,116.1v3.8h-4.7v-3.8Zm0,6.4v17h-4.7v-17Z"/><path d="M449.8,117.4v5.1h3.4v3.1h-3.4V134c0,1.6.4,2,2,2a5.72,5.72,0,0,0,1.4-.1v3.7a23,23,0,0,1-2.8.2c-3.5,0-5.3-1.1-5.3-4.1v-10h-2.8v-3.2h2.8v-5.1Z"/><path d="M470.6,128.3a11.81,11.81,0,0,1,.4,3v.9H458.7c.1,2.9,1.6,4.3,4.1,4.3,1.8,0,3.4-1,3.7-2.2h4.1c-1.3,3.8-3.9,5.7-8,5.7-5.4,0-8.7-3.7-8.7-8.9s3.6-9,8.7-9C467,122.1,469.6,124.8,470.6,128.3Zm-4.3.9c-.5-2.6-1.6-3.6-3.7-3.6a3.63,3.63,0,0,0-3.8,3.6Z"/><path d="M487.5,127.5h-4.4c-.1-1.6-1.2-2.3-3.2-2.3-1.8,0-2.6.6-2.6,1.6s1,1.6,3.7,2.2c3.5.7,4.7,1.2,5.7,2.1a3.87,3.87,0,0,1,1.3,3.1c0,4.4-3.8,5.9-7.8,5.9-4.6,0-7.9-2-8-6h4.4c0,1.9,1.6,2.9,3.6,2.9,1.6,0,3.1-.7,3.1-2.2,0-1.2-1.4-1.8-5.1-2.6-3.9-.8-5.6-2.2-5.6-4.6,0-3.6,2.6-5.5,7.4-5.5C484.6,122.1,487.2,124,487.5,127.5Z"/></g></g></g></svg>