<?xml version="1.0" encoding="UTF-8"?>
<svg xmlns="http://www.w3.org/2000/svg" xmlns:xlink="http://www.w3.org/1999/xlink" width="176.01" height="65.86" viewBox="0 0 176.01 65.86">
  <defs>
    <clipPath id="clip-path">
      <rect id="Rectangle_330" data-name="Rectangle 330" width="176.01" height="65.86" fill="none"></rect>
    </clipPath>
  </defs>
  <g id="Group_1178" data-name="Group 1178" clip-path="url(#clip-path)">
    <path id="Path_2" data-name="Path 2" d="M145.747,45.042a1.223,1.223,0,0,1-.512-.106,1.258,1.258,0,0,1-.4-.29,1.294,1.294,0,0,1-.26-.428,1.5,1.5,0,0,1,0-1.054,1.3,1.3,0,0,1,.26-.426,1.281,1.281,0,0,1,.4-.286,1.342,1.342,0,0,1,1.032,0,1.262,1.262,0,0,1,.674.715,1.409,1.409,0,0,1,.1.521,1.38,1.38,0,0,1-.1.523,1.258,1.258,0,0,1-.266.431,1.178,1.178,0,0,1-.4.29,1.279,1.279,0,0,1-.525.107m1.768-3.1a2.574,2.574,0,0,0-.8-.53,2.474,2.474,0,0,0-3.256,1.315,2.483,2.483,0,0,0,0,1.933,2.462,2.462,0,0,0,.532.789,2.509,2.509,0,0,0,.79.535,2.484,2.484,0,0,0,1.939,0,2.576,2.576,0,0,0,.793-.534,2.513,2.513,0,0,0,.54-.789,2.412,2.412,0,0,0,.2-.967,2.384,2.384,0,0,0-.2-.965,2.553,2.553,0,0,0-.54-.788" transform="translate(8.428 2.424)" fill="#070707"></path>
    <path id="Path_3" data-name="Path 3" d="M149.227,45.952a.212.212,0,0,0,.231.229h.764a.208.208,0,0,0,.222-.229V42.887h.484a.2.2,0,0,0,.211-.217v-.654a.2.2,0,0,0-.211-.215h-.484V41.59a2.767,2.767,0,0,1,.019-.329.569.569,0,0,1,.069-.217.248.248,0,0,1,.113-.11.489.489,0,0,1,.217-.041.31.31,0,0,0,.2-.059.238.238,0,0,0,.077-.2v-.643a.236.236,0,0,0-.285-.268,1.718,1.718,0,0,0-.734.145,1.454,1.454,0,0,0-.512.39,1.654,1.654,0,0,0-.293.555,2.314,2.314,0,0,0-.092.641V41.8h-.487a.237.237,0,0,0-.149.055.206.206,0,0,0-.061.16v.654a.2.2,0,0,0,.211.217h.487Z" transform="translate(8.738 2.337)" fill="#070707"></path>
    <path id="Path_4" data-name="Path 4" d="M155.145,46.082a1.861,1.861,0,0,0,.618.1.584.584,0,0,0,.186-.026.3.3,0,0,0,.115-.07.2.2,0,0,0,.058-.1.351.351,0,0,0,.005-.069v-.584a.293.293,0,0,0-.026-.084.242.242,0,0,0-.084-.092.3.3,0,0,0-.152-.042l-.121-.008a.358.358,0,0,1-.157-.039.287.287,0,0,1-.093-.1.4.4,0,0,1-.05-.14,1.131,1.131,0,0,1-.014-.194V42.441h.44a.248.248,0,0,0,.172-.06.223.223,0,0,0,.083-.184v-.606a.232.232,0,0,0-.07-.183.249.249,0,0,0-.169-.06h-.455V40.43a.364.364,0,0,0-.04-.161.18.18,0,0,0-.157-.085.263.263,0,0,0-.066.011l-.742.216a.318.318,0,0,0-.165.092.263.263,0,0,0-.049.164v.681h-.337a.254.254,0,0,0-.161.061.237.237,0,0,0-.085.194V42.2a.224.224,0,0,0,.087.186.258.258,0,0,0,.159.058h.337v2.3a1.5,1.5,0,0,0,.119.6,1.232,1.232,0,0,0,.323.455,1.463,1.463,0,0,0,.491.283" transform="translate(9.038 2.364)" fill="#070707"></path>
    <path id="Path_5" data-name="Path 5" d="M160.965,42.544a2.166,2.166,0,0,0-.224-.469,1.6,1.6,0,0,0-.352-.4,1.713,1.713,0,0,0-.49-.268,1.944,1.944,0,0,0-.649-.1,1.573,1.573,0,0,0-.713.161,1.925,1.925,0,0,0-.427.288V40.219a.249.249,0,0,0-.059-.169.223.223,0,0,0-.176-.075h-.756a.222.222,0,0,0-.238.245v5.7a.221.221,0,0,0,.238.244h.756a.237.237,0,0,0,.182-.075.267.267,0,0,0,.053-.168v-2.4a1.328,1.328,0,0,1,.072-.447.943.943,0,0,1,.191-.327.892.892,0,0,1,.289-.209.874.874,0,0,1,.352-.072.837.837,0,0,1,.393.085.819.819,0,0,1,.273.234,1.013,1.013,0,0,1,.164.358,1.8,1.8,0,0,1,.055.453v2.327a.216.216,0,0,0,.231.244h.756a.233.233,0,0,0,.178-.071.247.247,0,0,0,.06-.173V43.532a3.485,3.485,0,0,0-.036-.49,3.109,3.109,0,0,0-.123-.5" transform="translate(9.229 2.351)" fill="#070707"></path>
    <path id="Path_6" data-name="Path 6" d="M162.931,43.111a1.62,1.62,0,0,1,.145-.262,1.528,1.528,0,0,1,.283-.3,1.266,1.266,0,0,1,.351-.2,1.205,1.205,0,0,1,.809,0,1.172,1.172,0,0,1,.344.2,1.348,1.348,0,0,1,.276.3,1.633,1.633,0,0,1,.154.273Zm3.461-.194a2.354,2.354,0,0,0-.281-.628,2.054,2.054,0,0,0-.414-.48,2.343,2.343,0,0,0-.5-.334,2.42,2.42,0,0,0-.542-.2,2.42,2.42,0,0,0-2.3.668,2.461,2.461,0,0,0-.507.79,2.5,2.5,0,0,0-.183.962,2.374,2.374,0,0,0,.2.965,2.586,2.586,0,0,0,1.328,1.316,2.374,2.374,0,0,0,.944.194,2.532,2.532,0,0,0,.895-.16,2.917,2.917,0,0,0,.848-.535.231.231,0,0,0,.02-.336l-.37-.451a.17.17,0,0,0-.083-.068.265.265,0,0,0-.221.035c-.067.048-.134.1-.2.149a1.4,1.4,0,0,1-.215.136,1.123,1.123,0,0,1-.278.1,1.66,1.66,0,0,1-.393.039,1.355,1.355,0,0,1-.447-.074,1.328,1.328,0,0,1-.821-.853h3.166a1.269,1.269,0,0,0,.2-.015.3.3,0,0,0,.16-.077.315.315,0,0,0,.082-.159,1.351,1.351,0,0,0,.016-.208,2.713,2.713,0,0,0-.107-.784" transform="translate(9.51 2.424)" fill="#070707"></path>
    <path id="Path_7" data-name="Path 7" d="M146.213,51.517a1.315,1.315,0,0,1,.434.289,1.514,1.514,0,0,1,.292.44,1.338,1.338,0,0,1,.109.538,1.319,1.319,0,0,1-.113.536,1.462,1.462,0,0,1-.29.435,1.415,1.415,0,0,1-.434.291,1.3,1.3,0,0,1-.518.1,1.211,1.211,0,0,1-.511-.106,1.189,1.189,0,0,1-.39-.289,1.363,1.363,0,0,1-.251-.435,1.612,1.612,0,0,1-.088-.537,1.548,1.548,0,0,1,.091-.534,1.363,1.363,0,0,1,.251-.438,1.207,1.207,0,0,1,.39-.294,1.128,1.128,0,0,1,.5-.109,1.317,1.317,0,0,1,.527.108m1.757-2.525H147.2a.213.213,0,0,0-.227.236V50.8a2.347,2.347,0,0,0-.536-.326,2.086,2.086,0,0,0-.824-.166,2.274,2.274,0,0,0-1.7.73,2.372,2.372,0,0,0-.481.791,2.777,2.777,0,0,0-.167.961,2.684,2.684,0,0,0,.18,1,2.376,2.376,0,0,0,.5.787,2.28,2.28,0,0,0,.75.515,2.374,2.374,0,0,0,.932.182,1.965,1.965,0,0,0,.8-.174,2.441,2.441,0,0,0,.579-.378l.028.116a.456.456,0,0,0,.028.1.472.472,0,0,0,.055.111.327.327,0,0,0,.078.089.2.2,0,0,0,.142.053h.629a.215.215,0,0,0,.231-.236v-5.72a.217.217,0,0,0-.231-.236" transform="translate(8.428 2.882)" fill="#070707"></path>
    <path id="Path_8" data-name="Path 8" d="M152.49,52.708a1.39,1.39,0,0,1-.1.524,1.267,1.267,0,0,1-.266.43,1.178,1.178,0,0,1-.4.29,1.263,1.263,0,0,1-.525.107,1.223,1.223,0,0,1-.512-.106,1.258,1.258,0,0,1-.4-.29,1.3,1.3,0,0,1-.26-.428,1.5,1.5,0,0,1,0-1.054,1.3,1.3,0,0,1,.26-.426,1.273,1.273,0,0,1,.4-.286,1.342,1.342,0,0,1,1.032,0,1.253,1.253,0,0,1,.409.288,1.278,1.278,0,0,1,.266.427,1.41,1.41,0,0,1,.1.521m.474-1.752a2.574,2.574,0,0,0-.8-.53,2.474,2.474,0,0,0-3.256,1.315,2.483,2.483,0,0,0,0,1.933,2.462,2.462,0,0,0,.532.789,2.509,2.509,0,0,0,.79.535,2.484,2.484,0,0,0,1.939,0,2.576,2.576,0,0,0,.793-.534,2.507,2.507,0,0,0,.54-.789,2.431,2.431,0,0,0,.2-.967,2.393,2.393,0,0,0-.2-.964,2.545,2.545,0,0,0-.54-.789" transform="translate(8.749 2.955)" fill="#070707"></path>
    <path id="Path_9" data-name="Path 9" d="M157.8,53.74a.163.163,0,0,0-.155-.088.228.228,0,0,0-.151.052c-.057.043-.12.088-.192.133a2.26,2.26,0,0,1-.221.12,1.519,1.519,0,0,1-.259.086,1.334,1.334,0,0,1-.8-.069,1.3,1.3,0,0,1-.689-.719,1.416,1.416,0,0,1-.106-.547,1.366,1.366,0,0,1,.109-.553,1.386,1.386,0,0,1,.287-.433,1.3,1.3,0,0,1,.418-.286,1.341,1.341,0,0,1,.971-.024,1.612,1.612,0,0,1,.5.278.2.2,0,0,0,.286-.04l.376-.576a.2.2,0,0,0,.031-.133.21.21,0,0,0-.085-.141,2.709,2.709,0,0,0-.717-.421,2.319,2.319,0,0,0-.865-.149,2.4,2.4,0,0,0-.97.194,2.53,2.53,0,0,0-.781.525,2.5,2.5,0,0,0-.535.785,2.391,2.391,0,0,0-.2.972,2.486,2.486,0,0,0,.2.992,2.527,2.527,0,0,0,.536.788,2.488,2.488,0,0,0,1.76.714,2.255,2.255,0,0,0,.45-.047,2.625,2.625,0,0,0,.431-.129,2.666,2.666,0,0,0,.385-.192,2.137,2.137,0,0,0,.317-.227.228.228,0,0,0,.042-.325Z" transform="translate(9.063 2.955)" fill="#070707"></path>
    <path id="Path_10" data-name="Path 10" d="M72.583,22.83a.647.647,0,0,1,.27-.6l1.933-1.464a.483.483,0,0,1,.332-.126.7.7,0,0,1,.552.346,9.534,9.534,0,0,0,.652.826,4.174,4.174,0,0,0,1.8,1.206,3.875,3.875,0,0,0,1.246.188,4.454,4.454,0,0,0,1.15-.158,4.231,4.231,0,0,0,1.054-.44,2.614,2.614,0,0,0,.772-.695,1.542,1.542,0,0,0,.3-.928,1.655,1.655,0,0,0-.244-.961,1.881,1.881,0,0,0-.709-.582,6.09,6.09,0,0,0-1.131-.417c-.448-.12-.961-.265-1.536-.432a16.085,16.085,0,0,1-2.6-1.016A6.852,6.852,0,0,1,74.6,16.287a4.8,4.8,0,0,1-1.069-1.676,6.14,6.14,0,0,1-.355-2.158,4.439,4.439,0,0,1,.46-1.92,5.529,5.529,0,0,1,1.312-1.741,6.779,6.779,0,0,1,2.1-1.267,8.259,8.259,0,0,1,4.944-.2,8.474,8.474,0,0,1,1.741.716,7,7,0,0,1,1.347.976,10.544,10.544,0,0,1,.984,1.063,1.032,1.032,0,0,1,.228.488q.024.221-.293.473L84.2,12.517a.591.591,0,0,1-.409.174.645.645,0,0,1-.471-.284,5.452,5.452,0,0,0-1.393-1.166,3.931,3.931,0,0,0-1.976-.44,2.964,2.964,0,0,0-1.891.52,1.585,1.585,0,0,0-.644,1.291,1.361,1.361,0,0,0,.3.913,2.456,2.456,0,0,0,.868.6,9.809,9.809,0,0,0,1.37.472c.533.147,1.139.321,1.811.519a9.073,9.073,0,0,1,2.323,1.041,6.519,6.519,0,0,1,1.582,1.408,5.382,5.382,0,0,1,.9,1.669,5.788,5.788,0,0,1,.293,1.835,5.074,5.074,0,0,1-.636,2.582,5.782,5.782,0,0,1-1.656,1.826,7.318,7.318,0,0,1-2.292,1.086,9.348,9.348,0,0,1-2.567.361,8.431,8.431,0,0,1-4.09-.958,7.563,7.563,0,0,1-2.806-2.585,1.663,1.663,0,0,1-.235-.55" transform="translate(4.269 0.414)" fill="#070707"></path>
    <path id="Path_11" data-name="Path 11" d="M102.667,7.92a.57.57,0,0,1,.645-.645h3.133a.566.566,0,0,1,.633.645V25.933a.565.565,0,0,1-.633.646h-2.014a.844.844,0,0,1-.568-.22.925.925,0,0,1-.312-.536l-.429-1.874a6.059,6.059,0,0,1-2.478,2.149,7.547,7.547,0,0,1-3.156.654,8.478,8.478,0,0,1-2.551-.416,6.828,6.828,0,0,1-2.424-1.37,7.183,7.183,0,0,1-1.814-2.52,9.39,9.39,0,0,1-.706-3.866V7.92q0-.645.613-.645H93.66a.566.566,0,0,1,.633.645V18.486a4.8,4.8,0,0,0,.352,1.7,3.962,3.962,0,0,0,2.246,2.2,4.71,4.71,0,0,0,1.763.317,4.041,4.041,0,0,0,2.486-1,4.571,4.571,0,0,0,1.08-1.44,5.034,5.034,0,0,0,.448-2.251Z" transform="translate(5.294 0.428)" fill="#070707"></path>
    <path id="Path_12" data-name="Path 12" d="M114.875,25.94a.527.527,0,0,1-.277.481,1.122,1.122,0,0,1-.591.165H111.22a.568.568,0,0,1-.644-.646V7.928a.568.568,0,0,1,.644-.644h2.046a.814.814,0,0,1,.568.228,1.074,1.074,0,0,1,.331.544l.251,2.173a6.933,6.933,0,0,1,1.27-1.4,7.208,7.208,0,0,1,1.478-.961,6.945,6.945,0,0,1,1.605-.552,8.055,8.055,0,0,1,1.663-.174,7.376,7.376,0,0,1,2.513.465,6.683,6.683,0,0,1,2.327,1.457,7.628,7.628,0,0,1,1.717,2.535,9.234,9.234,0,0,1,.671,3.7v10.66q0,.629-.6.629h-3.037a.562.562,0,0,1-.645-.629V15.44a4.067,4.067,0,0,0-.317-1.583,4.369,4.369,0,0,0-.871-1.354,4.313,4.313,0,0,0-1.332-.946,4,4,0,0,0-1.686-.353,4.124,4.124,0,0,0-1.517.3,4.259,4.259,0,0,0-1.378.875,4.6,4.6,0,0,0-1.007,1.4,4.28,4.28,0,0,0-.394,1.866Z" transform="translate(6.505 0.42)" fill="#070707"></path>
    <path id="Path_13" data-name="Path 13" d="M135.064,25.94a.527.527,0,0,1-.277.481,1.122,1.122,0,0,1-.591.165h-2.787a.568.568,0,0,1-.644-.646V7.928a.568.568,0,0,1,.644-.644h2.046a.814.814,0,0,1,.568.228,1.074,1.074,0,0,1,.331.544l.251,2.173a6.934,6.934,0,0,1,1.27-1.4,7.208,7.208,0,0,1,1.478-.961,6.936,6.936,0,0,1,1.606-.552,8.038,8.038,0,0,1,1.662-.174,7.376,7.376,0,0,1,2.513.465,6.683,6.683,0,0,1,2.327,1.457,7.628,7.628,0,0,1,1.717,2.535,9.252,9.252,0,0,1,.671,3.7v10.66q0,.629-.6.629H144.21a.562.562,0,0,1-.645-.629V15.44a4.067,4.067,0,0,0-.317-1.583,4.369,4.369,0,0,0-.871-1.354,4.313,4.313,0,0,0-1.332-.946,4,4,0,0,0-1.686-.353,4.124,4.124,0,0,0-1.517.3,4.259,4.259,0,0,0-1.378.875,4.6,4.6,0,0,0-1.007,1.4,4.28,4.28,0,0,0-.394,1.866Z" transform="translate(7.693 0.42)" fill="#070707"></path>
    <path id="Path_14" data-name="Path 14" d="M157.555,31.884a.9.9,0,0,1-.324.425.811.811,0,0,1-.448.127h-2.914c-.317,0-.517-.09-.606-.268a.946.946,0,0,1,.039-.741l2.551-6.518L149.131,8.3a1.009,1.009,0,0,1-.1-.456.566.566,0,0,1,.12-.316.56.56,0,0,1,.259-.18.946.946,0,0,1,.317-.056h2.847a.779.779,0,0,1,.757.6l4.534,12.3,4.615-12.328a.754.754,0,0,1,.753-.568h3.231c.336,0,.533.1.59.3a.938.938,0,0,1-.038.613Z" transform="translate(8.767 0.429)" fill="#070707"></path>
    <path id="Path_15" data-name="Path 15" d="M72.583,52.16a.647.647,0,0,1,.27-.6L74.786,50.1a.483.483,0,0,1,.332-.126.7.7,0,0,1,.552.346,9.535,9.535,0,0,0,.652.826,4.174,4.174,0,0,0,1.8,1.206,3.875,3.875,0,0,0,1.246.188,4.454,4.454,0,0,0,1.15-.158,4.231,4.231,0,0,0,1.054-.44,2.614,2.614,0,0,0,.772-.695,1.542,1.542,0,0,0,.3-.928,1.655,1.655,0,0,0-.244-.961,1.881,1.881,0,0,0-.709-.582,6.089,6.089,0,0,0-1.131-.417c-.448-.12-.961-.265-1.536-.432a16.086,16.086,0,0,1-2.6-1.016A6.852,6.852,0,0,1,74.6,45.617a4.8,4.8,0,0,1-1.069-1.676,6.14,6.14,0,0,1-.355-2.158,4.439,4.439,0,0,1,.46-1.92,5.529,5.529,0,0,1,1.312-1.741,6.779,6.779,0,0,1,2.1-1.267,8.259,8.259,0,0,1,4.944-.2,8.416,8.416,0,0,1,1.741.716,7,7,0,0,1,1.347.976,10.543,10.543,0,0,1,.984,1.063,1.032,1.032,0,0,1,.228.488q.024.221-.293.473L84.2,41.847a.591.591,0,0,1-.409.174.645.645,0,0,1-.471-.284,5.452,5.452,0,0,0-1.393-1.166,3.931,3.931,0,0,0-1.976-.44,2.964,2.964,0,0,0-1.891.52,1.585,1.585,0,0,0-.644,1.291,1.361,1.361,0,0,0,.3.913,2.442,2.442,0,0,0,.868.6,9.81,9.81,0,0,0,1.37.472c.533.147,1.139.321,1.811.519a9.073,9.073,0,0,1,2.323,1.041,6.519,6.519,0,0,1,1.582,1.408,5.383,5.383,0,0,1,.9,1.669,5.793,5.793,0,0,1,.293,1.835,5.074,5.074,0,0,1-.636,2.582,5.782,5.782,0,0,1-1.656,1.826,7.318,7.318,0,0,1-2.292,1.086,9.348,9.348,0,0,1-2.567.361,8.419,8.419,0,0,1-4.09-.959,7.552,7.552,0,0,1-2.806-2.584,1.663,1.663,0,0,1-.235-.55" transform="translate(4.269 2.139)" fill="#070707"></path>
    <path id="Path_16" data-name="Path 16" d="M89.923,37.22a.562.562,0,0,1,.181-.465.638.638,0,0,1,.417-.149h3.21a.554.554,0,0,1,.425.166.609.609,0,0,1,.159.448V55.3c0,.409-.194.613-.583.613h-3.21a.536.536,0,0,1-.6-.613Z" transform="translate(5.29 2.153)" fill="#070707"></path>
    <path id="Path_17" data-name="Path 17" d="M112.945,44.287a6.1,6.1,0,0,0-1.281-1.922,5.944,5.944,0,0,0-4.229-1.748,5.041,5.041,0,0,0-2.212.481,5.256,5.256,0,0,0-1.717,1.308,6.05,6.05,0,0,0-1.108,1.92,6.8,6.8,0,0,0-.393,2.323,6.941,6.941,0,0,0,.385,2.337,5.69,5.69,0,0,0,1.1,1.907,5.181,5.181,0,0,0,3.978,1.756,5.731,5.731,0,0,0,2.289-.465,6.013,6.013,0,0,0,1.891-1.276,6.175,6.175,0,0,0,1.289-1.9,5.805,5.805,0,0,0,.483-2.355,5.906,5.906,0,0,0-.475-2.361M117.5,55.592a.552.552,0,0,1-.617.629h-2.6a.541.541,0,0,1-.355-.125,1.455,1.455,0,0,1-.267-.307,1.825,1.825,0,0,1-.188-.378,2.285,2.285,0,0,1-.1-.356l-.255-1.086a9.41,9.41,0,0,1-2.748,1.9,7.537,7.537,0,0,1-3.172.695,9.386,9.386,0,0,1-3.708-.733,8.995,8.995,0,0,1-2.991-2.048,9.526,9.526,0,0,1-1.992-3.133,10.709,10.709,0,0,1-.725-3.991,10.905,10.905,0,0,1,.68-3.857,9.511,9.511,0,0,1,1.913-3.156,8.957,8.957,0,0,1,2.96-2.126,9.136,9.136,0,0,1,3.817-.78,8.1,8.1,0,0,1,3.269.662,9.11,9.11,0,0,1,2.7,1.795V31.941c0-.418.2-.629.6-.629h3.165a.552.552,0,0,1,.617.629Z" transform="translate(5.752 1.842)" fill="#070707"></path>
    <path id="Path_18" data-name="Path 18" d="M127.87,40.45a5.59,5.59,0,0,0-1.551.889,6.389,6.389,0,0,0-1.23,1.322,6.585,6.585,0,0,0-.826,1.622h10.786a7.322,7.322,0,0,0-.858-1.677,6.225,6.225,0,0,0-1.216-1.315,5.316,5.316,0,0,0-1.516-.857,5.1,5.1,0,0,0-1.779-.307,5.029,5.029,0,0,0-1.811.322m6.989,10.038a.531.531,0,0,1,.19.038.447.447,0,0,1,.174.151l1.544,1.889a.6.6,0,0,1-.051.913,11.521,11.521,0,0,1-3.392,2.141,9.8,9.8,0,0,1-3.565.647,9.342,9.342,0,0,1-3.77-.779,10.265,10.265,0,0,1-5.314-5.268,9.278,9.278,0,0,1-.8-3.842,10.11,10.11,0,0,1,.733-3.849,9.876,9.876,0,0,1,2.031-3.157,9.534,9.534,0,0,1,3.095-2.141,9.632,9.632,0,0,1,3.921-.788,9.464,9.464,0,0,1,2.164.26,9.983,9.983,0,0,1,4.18,2.117,8.406,8.406,0,0,1,1.643,1.907,9.816,9.816,0,0,1,1.119,2.51,11.036,11.036,0,0,1,.417,3.14,4.283,4.283,0,0,1-.062.8.873.873,0,0,1-.238.466.894.894,0,0,1-.471.219,4.362,4.362,0,0,1-.772.056H124.089a5.99,5.99,0,0,0,.772,1.867,5.659,5.659,0,0,0,2.959,2.345,5.977,5.977,0,0,0,1.968.323,7.23,7.23,0,0,0,1.7-.174,5.465,5.465,0,0,0,1.236-.45,5.6,5.6,0,0,0,.93-.6c.266-.214.533-.416.8-.606a.711.711,0,0,1,.409-.141" transform="translate(7.052 2.143)" fill="#070707"></path>
    <path id="Path_19" data-name="Path 19" d="M94.588,32.136a2.511,2.511,0,1,1-2.51-2.51,2.51,2.51,0,0,1,2.51,2.51" transform="translate(5.269 1.742)" fill="#070707"></path>
    <path id="Path_20" data-name="Path 20" d="M39.755.768A32.506,32.506,0,0,0,35.527.122a44.366,44.366,0,0,1-11.846,21.24A44.381,44.381,0,0,1,0,33.709,33.178,33.178,0,0,0,.366,37.98a48.632,48.632,0,0,0,26.328-13.6A48.6,48.6,0,0,0,39.755.768" transform="translate(0 0.007)" fill="#fab014"></path>
    <path id="Path_21" data-name="Path 21" d="M57.707,44.239H56.158a17.116,17.116,0,0,0,.659,4.7,32.833,32.833,0,0,0,5.224-15.485,15.578,15.578,0,0,0-4.334,10.787" transform="translate(3.304 1.968)" fill="#fab014"></path>
    <path id="Path_22" data-name="Path 22" d="M51.716,44.675H50.167A23.374,23.374,0,0,0,52.559,55a33.091,33.091,0,0,0,3.117-3.514,19.231,19.231,0,0,1,6.731-22.4c-.072-1.026-.186-2.038-.349-3.036A21.976,21.976,0,0,0,51.716,44.675" transform="translate(2.951 1.532)" fill="#fab014"></path>
    <path id="Path_23" data-name="Path 23" d="M33.417.018C33.182.013,32.949,0,32.713,0a32.738,32.738,0,0,0-3.764.224,38.055,38.055,0,0,1-9.755,16.66A38.05,38.05,0,0,1,.494,27.15,33.153,33.153,0,0,0,.012,31.6,42.312,42.312,0,0,0,22.207,19.9,42.287,42.287,0,0,0,33.417.018" transform="translate(0.001 0)" fill="#fab014"></path>
    <path id="Path_24" data-name="Path 24" d="M18.633,2.935a33.033,33.033,0,0,0-14.9,14.113,29.7,29.7,0,0,0,9.285-6.295,29.728,29.728,0,0,0,5.616-7.818" transform="translate(0.22 0.172)" fill="#fab014"></path>
    <path id="Path_25" data-name="Path 25" d="M26.625.539A32.331,32.331,0,0,0,21.619,1.9a31.763,31.763,0,0,1-6.965,10.465A31.759,31.759,0,0,1,2.57,19.943,32.788,32.788,0,0,0,.913,24.875a36,36,0,0,0,16.756-9.495A35.985,35.985,0,0,0,26.625.539" transform="translate(0.054 0.031)" fill="#fab014"></path>
    <path id="Path_26" data-name="Path 26" d="M39.734,1.221a50.734,50.734,0,0,1-5.1,13.311A51.378,51.378,0,0,1,46.154,3.851a32.471,32.471,0,0,0-6.421-2.63" transform="translate(2.037 0.072)" fill="#fab014"></path>
    <path id="Path_27" data-name="Path 27" d="M25.619,45.017a50.658,50.658,0,0,1,6.433-24.765,51.307,51.307,0,0,1-3.928,4.412A50.694,50.694,0,0,1,.713,38.841,32.869,32.869,0,0,0,29.5,64.512a50.712,50.712,0,0,1-3.877-19.5" transform="translate(0.042 1.191)" fill="#fab014"></path>
    <path id="Path_28" data-name="Path 28" d="M45.724,45.028H44.175A29.683,29.683,0,0,0,47.867,59.4a32.963,32.963,0,0,0,3.453-2.588A25.566,25.566,0,0,1,61.574,22.675q-.38-1.336-.866-2.623A28.346,28.346,0,0,0,45.724,45.028" transform="translate(2.599 1.179)" fill="#fab014"></path>
    <path id="Path_29" data-name="Path 29" d="M26.2,45.871h0A48.634,48.634,0,0,0,30.319,65.5c.285.007.568.021.853.021a32.925,32.925,0,0,0,3.747-.221A44.61,44.61,0,0,1,52.328,7.494q-1.1-.942-2.285-1.783A47.361,47.361,0,0,0,27.75,45.871Z" transform="translate(1.541 0.336)" fill="#fab014"></path>
    <path id="Path_30" data-name="Path 30" d="M39.733,45.344H38.184a35.99,35.99,0,0,0,4.409,17.3,32.5,32.5,0,0,0,3.85-1.851A31.911,31.911,0,0,1,59.584,17.047q-.619-1.212-1.333-2.365A34.693,34.693,0,0,0,39.733,45.344" transform="translate(2.246 0.863)" fill="#fab014"></path>
    <path id="Path_31" data-name="Path 31" d="M33.741,45.627H32.192a42.3,42.3,0,0,0,4.537,19.105,32.185,32.185,0,0,0,4.244-1.082A38.261,38.261,0,0,1,56.5,11.967q-.856-1.09-1.8-2.1A41.035,41.035,0,0,0,33.741,45.627" transform="translate(1.894 0.58)" fill="#fab014"></path>
  </g>
</svg>
