<svg xmlns="http://www.w3.org/2000/svg" viewBox="0 0 496.6401367 601.1713867"><path d="M479.062 237.89c3.9 22.67 2.729 43.36-3.516 62.11-11.718 40.63-36.328 73.443-73.828 98.437-23.437 15.638-46.49 27.356-69.14 35.156-47.662 12.506-94.537 15.638-140.625 9.375-46.107-6.244-87.305-22.265-123.633-48.047-36.328-25.78-58.41-55.846-66.21-90.234-7.032-35.156 3.515-68.737 31.64-100.781 28.125-32.025 61.322-59.363 99.609-82.031 39.844-24.207 98.822-49.219 176.953-75 33.581-10.931 68.737-21.094 105.469-30.469l-32.813-9.375L387.656 0a6851.454 6851.454 0 0 1 29.883 7.617c13.659 3.516 24.023 6.061 31.054 7.617-26.568 17.194-44.531 31.256-53.906 42.188a20.77 20.77 0 0 1-5.86-5.86c3.901-3.9 9.376-9.374 16.407-16.406l10.547-9.375c-139.857 39.844-240.235 84.375-301.172 133.594-67.2 55.481-96.496 104.7-87.89 147.656 7.8 40.63 39.056 75.586 93.75 104.883 54.674 29.296 111.327 36.914 169.921 22.851 81.244-19.518 134.766-58.19 160.547-116.015 7.8-17.963 11.719-39.056 11.719-63.282-.787-22.65-8.203-43.157-22.266-61.523-14.062-18.347-32.044-32.227-53.906-41.602-12.506-4.687-25.397-7.8-38.672-9.375-3.13-.768-7.435-1.172-12.89-1.172 49.987 30.47 75 75 75 133.594 0 42.975-15.82 80.091-47.462 111.328-31.64 31.256-69.726 47.279-114.257 48.047v-318.75c24.994 0 48.431 5.476 70.312 16.406 60.15-3.899 105.854 12.507 137.11 49.22 11.718 14.85 19.518 33.6 23.437 56.25zM38.437 487.5c-2.343-.769-5.475-1.172-9.374-1.172-7.032 0-12.891 1.959-17.579 5.859-4.687 3.919-7.03 8.99-7.03 15.234 0 7.032 2.727 12.506 8.202 16.407 3.9 3.13 9.375 4.687 16.407 4.687 1.556 0 5.456-.768 11.718-2.344h2.344v-18.75H33.75c2.344.787 3.516 3.131 3.516 7.032v8.203c-1.575.787-4.304 1.172-8.203 1.172-11.72 0-17.579-5.456-17.579-16.407 0-10.931 5.457-16.406 16.407-16.406 4.687 0 8.203 1.172 10.547 3.516V487.5zm-22.265 69.14c0-5.456 1.172-8.972 3.515-10.547H4.454c2.344.787 3.516 4.303 3.516 10.547v32.813c0 5.474-1.172 8.99-3.516 10.547h32.813l4.687-11.72c-3.918 3.92-8.99 5.86-15.234 5.86-.788 0-2.344-.182-4.688-.586-2.343-.385-4.303-.586-5.86-.586V556.64zm50.39-57.422h-2.344c-2.343 0-4.687 1.172-7.031 3.516v-4.688c0 .787-1.172 1.172-3.516 1.172h-3.515c1.556 1.575 2.344 3.516 2.344 5.86v16.406c0 3.13-.788 5.09-2.344 5.86h9.375c-1.575-1.557-2.344-3.516-2.344-5.86v-10.547c0-4.687 2.344-7.031 7.031-7.031 1.557 0 2.344.403 2.344 1.172v-5.86zm11.719 90.235c0 6.262 3.515 9.778 10.547 10.547l3.515-5.86c-2.343 0-3.919-.385-4.687-1.172-1.575-.768-2.344-3.112-2.344-7.031V575.39c0-4.687-.403-7.8-1.172-9.375-2.344-3.112-7.031-4.687-14.062-4.687h-5.86l-4.687 8.203c4.687-2.344 8.203-3.516 10.547-3.516 5.456 0 8.203 1.96 8.203 5.86 0 2.343-3.131 3.918-9.375 4.687-3.92.787-7.435 1.959-10.547 3.516-3.131 1.575-4.688 4.302-4.688 8.203 0 7.818 4.688 11.719 14.063 11.719h4.687l4.688-5.86c-2.344.787-4.688 1.172-7.031 1.172-5.475 0-8.203-2.344-8.203-7.031 0-2.344 1.94-4.284 5.859-5.86 5.456-1.556 8.972-2.728 10.547-3.515v10.547zm7.031-91.407c-10.162 0-15.234 5.091-15.234 15.235 0 10.162 5.072 15.234 15.234 15.234 10.144 0 15.234-5.072 15.234-15.234 0-8.588-5.09-13.66-15.234-15.235zm0 4.688c6.244 0 9.375 3.919 9.375 11.719 0 6.262-3.13 9.375-9.375 9.375-6.263 0-9.375-3.9-9.375-11.72 0-6.243 3.112-9.374 9.375-9.374zm69.14-232.031H84.14c1.557-42.188 16.406-77.344 44.531-105.47 14.063 9.376 29.297 17.579 45.704 24.61-11.72 25.782-18.366 52.735-19.922 80.86zm18.75 86.718c-17.98 7.819-33.215 16.407-45.702 25.782-28.913-28.894-43.36-63.666-43.36-104.297h70.313c1.556 28.912 7.8 55.078 18.75 78.515zM127.5 527.343h7.03c-1.574-.768-2.343-2.728-2.343-5.86v-23.437c0 .787-1.172 1.172-3.516 1.172h-3.515c1.556 1.575 2.344 3.516 2.344 5.86v11.718c0 4.688-2.344 7.032-7.032 7.032s-7.031-2.729-7.031-8.203v-17.579c-.787.787-1.959 1.172-3.516 1.172h-4.687c1.557 1.575 2.344 3.516 2.344 5.86v11.718c0 7.819 3.515 11.72 10.547 11.72 3.9 0 7.03-1.558 9.375-4.688v3.515zm105.468-94.922c-10.162 0-23.84-2.343-41.015-7.03-23.438-8.589-42.975-20.691-58.594-36.329 13.275-9.375 27.722-17.175 43.36-23.437l2.343 2.343c13.275 25.013 31.237 46.49 53.906 64.453zm-87.89 119.532c1.556-.769 3.515-1.172 5.859-1.172 6.244 0 9.375 3.13 9.375 9.375 0 7.031-4.303 10.95-12.89 11.719 1.556 3.13 2.728 5.09 3.515 5.859.769 1.575 2.526 4.101 5.273 7.617 2.729 3.516 4.487 5.677 5.274 6.445 4.687 5.475 8.972 8.204 12.89 8.204h7.032l-1.172-1.172c-3.131-1.557-6.263-3.9-9.375-7.032-.787-.768-2.93-3.515-6.445-8.203s-6.061-8.203-7.618-10.547c8.588-3.112 12.891-7.8 12.891-14.062 0-8.588-5.86-12.89-17.578-12.89h-18.751c2.345 1.574 3.517 5.09 3.517 10.546v32.813c0 4.687-1.172 8.203-3.516 10.547h15.234c-2.343-1.557-3.515-5.073-3.515-10.547v-37.5zM134.53 159.375c27.338-24.207 59.765-38.269 97.265-42.188-22.669 17.194-40.63 39.075-53.906 65.625-13.294-4.687-27.74-12.487-43.36-23.437zm17.578 367.968c1.557.787 3.112 1.172 4.687 1.172 9.375 0 14.063-5.072 14.063-15.234 0-9.375-4.303-14.063-12.89-14.063-4.688 0-8.204 1.172-10.548 3.516v-4.688c-.787.787-1.959 1.172-3.515 1.172h-4.688c1.557 1.575 2.344 3.516 2.344 5.86v29.297c0 3.13-.787 4.687-2.344 4.687h10.547c-1.575 0-2.344-1.557-2.344-4.687v-22.266c0-3.112.385-5.072 1.172-5.86 2.344-2.343 4.688-3.515 7.032-3.515 6.244 0 9.375 3.516 9.375 10.547s-3.131 10.547-9.375 10.547c-2.344 0-4.688-.385-7.032-1.172l3.516 4.687zm29.297-335.156c19.518 7.82 39.056 12.122 58.594 12.89v65.626h-77.344c1.556-28.894 7.8-55.078 18.75-78.516zm-18.75 86.719H240v63.281c-18.75.787-38.672 5.09-59.766 12.89-10.162-23.437-16.022-48.815-17.578-76.171zm42.187 234.375v-1.172c0-8.588-4.687-12.89-14.062-12.89-10.162 0-15.235 4.687-15.235 14.062 0 10.162 5.86 15.234 17.579 15.234 2.343 0 5.072-.768 8.203-2.344l3.515-4.687c-4.687 1.575-8.203 2.344-10.547 2.344-7.818 0-11.718-3.516-11.718-10.547h22.265zm-22.265-4.688c1.556-3.9 4.284-5.86 8.203-5.86 4.687 0 7.031 1.96 7.031 5.86h-15.234zm1.172-146.484c21.862-7.031 40.612-10.932 56.25-11.719v78.516c-23.438-18.75-42.188-41.016-56.25-66.797zM240 119.53v77.344c-20.326-1.556-38.672-5.457-55.079-11.72 13.276-24.992 31.641-46.874 55.079-65.624zm-31.641 441.797c-14.063 0-21.094 6.646-21.094 19.922 0 5.474 1.94 10.162 5.86 14.062 3.9 3.919 8.587 5.86 14.062 5.86 5.456 0 10.346-2.143 14.648-6.446 4.285-4.284 6.446-9.174 6.446-14.648 0-12.488-6.647-18.75-19.922-18.75zm-1.172 4.687c8.588 0 12.89 5.475 12.89 16.406 0 8.607-3.918 12.891-11.718 12.891-8.607 0-12.89-5.072-12.89-15.234 0-9.375 3.9-14.063 11.718-14.063zm42.188-78.515c-.788 0-2.344-.183-4.688-.586-2.344-.385-3.919-.586-4.687-.586-10.163 0-15.235 3.515-15.235 10.547 0 3.13 1.172 5.474 3.516 7.03.768 2.345 3.515 3.92 8.203 4.688 1.557.787 3.112 1.758 4.687 2.93 1.557 1.172 2.729 1.758 3.516 1.758.769.787 1.172 2.344 1.172 4.687 0 3.92-2.747 5.86-8.203 5.86-5.475 0-10.162-1.557-14.063-4.688l2.344 7.031c2.344 1.576 5.86 2.344 10.547 2.344 10.932 0 16.406-4.284 16.406-12.89 0-3.113-1.172-5.073-3.515-5.86-.788-1.557-3.516-3.515-8.204-5.86-6.262-1.556-9.375-3.9-9.375-7.03 0-3.9 2.729-5.86 8.204-5.86 3.9 0 7.03 1.172 9.375 3.516v-7.03zm25.78 73.828h-8.202c-7.819 0-13.678 1.959-17.578 5.859-3.92 3.919-5.86 8.606-5.86 14.063 0 12.505 7.416 18.75 22.266 18.75 4.687 0 8.203-.385 10.547-1.172l4.687-8.203c-3.919 3.13-8.203 4.687-12.89 4.687-10.95 0-16.407-5.072-16.407-15.234 0-9.375 4.284-14.063 12.89-14.063 3.901 0 7.417 1.575 10.548 4.688v-9.375zm3.516-33.985h8.204c-1.576-.768-2.344-2.728-2.344-5.86v-23.437c-.787.787-1.96 1.172-3.516 1.172h-4.687c1.556 1.575 2.343 3.516 2.343 5.86v11.718c0 4.688-2.343 7.032-7.03 7.032s-7.032-2.729-7.032-8.203v-17.579c0 .787-1.172 1.172-3.516 1.172h-3.515c1.556 1.575 2.343 3.516 2.343 5.86v11.718c0 7.819 3.516 11.72 10.547 11.72 3.113 0 5.86-1.558 8.203-4.688v3.515zm25.782 0c.768.787 2.343 1.172 4.687 1.172 9.375 0 14.063-5.072 14.063-15.234 0-9.375-4.688-14.063-14.063-14.063-4.687 0-7.818 1.172-9.375 3.516v-4.688c-.787.787-1.959 1.172-3.515 1.172h-4.688c1.557 1.575 2.344 3.516 2.344 5.86v29.297c0 3.13-.787 4.687-2.344 4.687h9.375c-1.575 0-2.344-1.557-2.344-4.687v-22.266c0-2.344.769-4.284 2.344-5.86.769-2.343 3.112-3.515 7.031-3.515 6.244 0 9.375 3.516 9.375 10.547s-3.515 10.547-10.547 10.547c-2.343 0-4.302-.385-5.859-1.172l3.516 4.687zm-2.344 17.578c-.787.787-2.344 1.172-4.688 1.172h-5.859c1.557 1.575 2.344 4.303 2.344 8.203v37.5c0 3.92-.787 6.647-2.344 8.204h12.89c-1.575-1.557-2.343-4.285-2.343-8.204v-15.234c0-3.112.385-5.456 1.172-7.031 1.556-1.557 4.284-2.344 8.203-2.344 3.112 0 5.456 1.172 7.031 3.516.769.787 1.172 2.747 1.172 5.859v15.234c0 3.92-.787 6.647-2.344 8.204h12.89c-1.574-1.557-2.343-4.285-2.343-8.204V575.39c0-3.112-.787-6.244-2.344-9.375-2.343-3.112-6.262-4.687-11.718-4.687-5.475 0-9.375 1.575-11.72 4.687v-21.094zm64.453-42.187c-3.919-2.344-7.031-3.516-9.375-3.516-9.375 0-14.062 4.688-14.062 14.063 0 10.162 5.072 15.234 15.234 15.234h2.344l4.687-5.86c-1.575.788-3.515 1.173-5.86 1.173-7.03 0-10.546-3.9-10.546-11.72 0-6.243 2.728-9.374 8.203-9.374 3.9 0 6.244 1.172 7.031 3.516 1.557.787 2.344 3.13 2.344 7.03v14.063h7.031c-1.575-1.556-2.343-3.515-2.343-5.86v-35.155c0 .787-1.172 1.172-3.516 1.172h-3.516c1.557 1.575 2.344 3.515 2.344 5.859v9.375zm17.578 77.344v-1.172c0-11.719-6.263-17.578-18.75-17.578-13.294 0-19.922 6.262-19.922 18.75 0 13.294 7.416 19.922 22.266 19.922 5.456 0 9.375-.385 11.719-1.172l4.687-8.203c-3.919 3.13-8.606 4.687-14.062 4.687-10.95 0-16.407-5.072-16.407-15.234h30.47zm-30.469-4.688c1.557-6.244 5.073-9.375 10.547-9.375 6.244 0 9.76 3.131 10.547 9.375h-21.094zm53.907-62.11v-1.171c0-8.588-4.688-12.89-14.063-12.89-10.162 0-15.234 4.687-15.234 14.062 0 10.162 5.86 15.234 17.578 15.234 2.344 0 5.072-.768 8.203-2.344l3.516-4.687c-4.688 1.575-8.203 2.344-10.547 2.344-7.819 0-11.719-3.516-11.719-10.547h22.266zm-22.266-4.687c1.557-3.9 4.284-5.86 8.203-5.86 4.688 0 7.031 1.96 7.031 5.86h-15.234zM411.093 600c-1.575-1.557-2.343-4.285-2.343-8.204v-46.875c-.788.787-2.344 1.172-4.688 1.172h-5.86c1.557 1.575 2.344 4.303 2.344 8.203v37.5c0 3.92-.787 6.647-2.343 8.204h12.89zm28.125 0c-1.575-1.557-2.343-4.285-2.343-8.204v-46.875c-.788.787-2.748 1.172-5.86 1.172h-4.687c1.556 1.575 2.343 4.303 2.343 8.203v37.5c0 3.92-.787 6.647-2.343 8.204h12.89zm19.922-111.33c-6.263-1.556-9.778-2.343-10.547-2.343-14.062 0-21.093 7.03-21.093 21.093s7.416 21.094 22.265 21.094c3.9 0 7.031-.768 9.375-2.344l3.516-7.03c-5.475 3.13-10.162 4.687-14.063 4.687-10.162 0-15.234-5.86-15.234-17.578 0-9.375 5.072-14.063 15.234-14.063 4.688 0 8.203 1.172 10.547 3.516v-7.032zm33.985 91.407v-1.172c0-11.719-6.263-17.578-18.75-17.578-14.063 0-21.094 6.262-21.094 18.75 0 13.294 7.8 19.922 23.437 19.922 5.456 0 9.375-.385 11.719-1.172l3.516-8.203c-3.131 3.13-7.435 4.687-12.891 4.687-10.95 0-16.406-5.072-16.406-15.234h30.469zm-30.47-4.688c1.557-6.244 5.073-9.375 10.548-9.375 6.244 0 9.76 3.131 10.547 9.375h-21.094zm18.75-77.344c-10.95 0-16.405 5.091-16.405 15.235 0 10.162 5.072 15.234 15.234 15.234 10.932 0 16.406-5.072 16.406-15.234 0-8.588-5.09-13.66-15.234-15.235zm-1.171 4.688c7.031 0 10.547 3.919 10.547 11.719 0 6.262-3.131 9.375-9.375 9.375-6.263 0-9.375-3.9-9.375-11.72 0-6.243 2.728-9.374 8.203-9.374z" fill="#015d94"/></svg>