<svg xmlns="http://www.w3.org/2000/svg" xmlns:xlink="http://www.w3.org/1999/xlink" id="Raggruppa_148" data-name="Raggruppa 148" width="196.962" height="66.187" viewBox="0 0 196.962 66.187"><defs><clipPath id="clip-path"><rect id="Rettangolo_29" data-name="Rettangolo 29" width="196.962" height="66.187" fill="none"></rect></clipPath></defs><path id="Tracciato_677" data-name="Tracciato 677" d="M339.59,146.184l.007-4.715-.007-4.728Z" transform="translate(-226.988 -91.4)" fill="#e5007e"></path><g id="Raggruppa_60" data-name="Raggruppa 60"><g id="Raggruppa_59" data-name="Raggruppa 59" clip-path="url(#clip-path)"><path id="Tracciato_678" data-name="Tracciato 678" d="M221.774,102.838H211.4V115h-9.7V102.838H191.322v2.613a27.326,27.326,0,0,0-12.52-3.06c-8.137,0-13.412,3.936-13.412,10.2,0,11,16.231,8.316,16.231,12.385,0,1.117-.985,1.608-2.5,1.608-3.173,0-8.721-2.192-11.94-4.874l-3.846,7.779a27.107,27.107,0,0,0,15.694,5.007c5.455,0,10.349-1.844,12.3-5.892v5.581h10.375V122.865h9.7v11.314h10.375V102.838Zm-30.452,17.547c-3.389-6.734-15.336-5.408-15.336-8.787,0-.938.759-1.3,1.923-1.3,2.729,0,7.6,1.923,10.776,3.667l2.636-5.527Z" transform="translate(-109.173 -68.439)" fill="#e5007e"></path><path id="Tracciato_679" data-name="Tracciato 679" d="M377.243,174.995a8.582,8.582,0,0,0-6.071-1.761,8.826,8.826,0,0,0-7.862,6.724,19.8,19.8,0,0,0,17.219.06,8.673,8.673,0,0,0-3.286-5.023" transform="translate(-242.843 -115.771)" fill="#e5007e"></path><path id="Tracciato_680" data-name="Tracciato 680" d="M407.949,103.118,403.3,123.686l-4.738-20.568H388.452L383.8,123.686l-4.738-20.568H367.973l1.807,5.581a16.89,16.89,0,0,0-11.072-5.73c.129,1.854.255,3.7.385,5.561h-2.212q-.179-2.855-.361-5.71c-.133,0-.262-.01-.4-.01-.186,0-.368,0-.55.01q-.179,2.84-.358,5.7H353q.189-2.765.381-5.534c-6.847.889-12.023,5.1-13.8,11.081l.01,4.728-.01,4.715a15.2,15.2,0,0,0,4.622,7.215q1.791-3.218,3.565-6.446a.812.812,0,0,1,.822-.5c4.96.013,9.924,0,14.885.023a.973.973,0,0,1,.743.358q1.87,3.317,3.707,6.648a15.491,15.491,0,0,0,5.392-11.184l4.8,14.838h10.687l4.47-18.734,4.337,18.734H408.3l10.239-31.344H407.949Zm-55.991,5.716h8.19v.779h-8.19Zm-1.575,9.3c.666-2.547,1.346-5.093,2-7.646.116-.458.292-.64.8-.63,1.933.033,3.87.017,5.806.01.328,0,.564.007.673.431.806,3.153,1.641,6.3,2.467,9.447a.922.922,0,0,1-.013.189h-3.4c-.381-2.364-.763-4.742-1.157-7.172h-3.017c-.312,1.953-.637,3.913-.938,5.876C353.39,120,353.4,120,352,120h-2.089c.172-.676.315-1.27.471-1.86m13.094,5.2H347.959V120.41h15.518Z" transform="translate(-226.982 -68.72)" fill="#e5007e"></path><path id="Tracciato_682" data-name="Tracciato 682" d="M194.043,16.276l12.341,16.009h8.674V.94h-9.39V17.035L193.284.94H184.61V32.284h9.433Z" transform="translate(-123.397 -0.628)" fill="#fff"></path><path id="Tracciato_683" data-name="Tracciato 683" d="M374.07,38.221a17.651,17.651,0,0,0-.67-4.921v9.795a17.386,17.386,0,0,0,.67-4.874" transform="translate(-249.588 -22.258)" fill="#fff"></path><path id="Tracciato_684" data-name="Tracciato 684" d="M43.417,24.413V20.523H58.083V12.655H43.417V8.808H59.559V.94H24.01L17.57,21.508,11.088.94H0L11.894,32.284h10.73L33.042,5.035V32.284H59.96V24.413Z" transform="translate(0 -0.628)" fill="#fff"></path><path id="Tracciato_685" data-name="Tracciato 685" d="M388.549,82.08q-.139,2.218-.279,4.44h.64q-.139-2.218-.282-4.437c-.023,0-.05,0-.08,0" transform="translate(-259.527 -54.864)" fill="#fff"></path><path id="Tracciato_686" data-name="Tracciato 686" d="M461.677,22.445a11.953,11.953,0,0,1-4.115,1.028c-4.069,0-7.066-3.13-7.066-7.467,0-4.248,2.951-7.378,6.976-7.378a11.921,11.921,0,0,1,7.736,3.309l5.859-7.109A21.561,21.561,0,0,0,457.519,0c-8.435,0-14.954,4.582-16.99,11.373V.315h-9.39v16.1L418.754.315H410.08V31.659h9.434V15.651l12.341,16.009h8.674v-10.9c1.993,6.778,8.253,11.35,16.32,11.35a27.644,27.644,0,0,0,13.727-4.025V15.16h-8.9Z" transform="translate(-274.105)" fill="#fff"></path><rect id="Rettangolo_28" data-name="Rettangolo 28" width="2.6" height="1.409" transform="translate(127.761 8.197)" fill="#fff"></rect><path id="Tracciato_687" data-name="Tracciato 687" d="M312.19.94V11.67a1.517,1.517,0,0,1,0,.789V11.67C310.253,5.008,304.242.94,295.826.94h-14V32.284h13.592c8.658,0,14.805-4.118,16.768-10.819V20.7a1.464,1.464,0,0,1,0,.766V32.284h2.769q.721-10.445,1.442-20.909h2.079q.726,10.46,1.449,20.909h2.636V.94ZM296.095,24.234h-3.889V8.987h3.4c4.025,0,6.661,3.041,6.661,7.693,0,4.6-2.414,7.553-6.171,7.553M317.4,3.792c.033,0,.07,0,.1,0,.116,1.562.232,3.12.348,4.715h-.819c.126-1.6.249-3.16.368-4.718m-1.253,5.033h2.6v1.409h-2.6Zm2.583,2.271c-.842.03-1.688.036-2.533,0-.159-.007-.312-.229-.468-.351l.156-.235c.952,0,1.9-.01,2.855.013.123,0,.242.166.365.255-.126.113-.249.315-.375.318" transform="translate(-188.381 -0.628)" fill="#fff"></path></g></g></svg>